<svg xmlns="http://www.w3.org/2000/svg" viewBox="0 0 1600 900" width="1600" height="900" role="img" aria-label="Data quality and imputation pipeline">
  <defs>
    <linearGradient id="bg3" x1="0" y1="0" x2="1" y2="1">
      <stop offset="0" stop-color="#0D0D14"/>
      <stop offset="1" stop-color="#070710"/>
    </linearGradient>
  </defs>
  <rect width="1600" height="900" fill="url(#bg3)"/>
  <g stroke="#06B6D4" stroke-opacity="0.06">
    <path d="M0 150H1600M0 300H1600M0 450H1600M0 600H1600M0 750H1600"/>
    <path d="M200 0V900M400 0V900M600 0V900M800 0V900M1000 0V900M1200 0V900M1400 0V900"/>
  </g>
  <rect x="80" y="70" width="14" height="14" rx="3" fill="#06B6D4"/>
  <text x="108" y="83" font-family="monospace" font-size="22" fill="#8B8BA8">PYTHON · PANDAS · DATA QUALITY</text>
  <text x="80" y="140" font-family="DM Sans, sans-serif" font-weight="700" font-size="46" fill="#F0F0FF">Missing-Value Imputation</text>

  <!-- BEFORE grid (with gaps) -->
  <g transform="translate(80 230)">
    <text x="0" y="-10" font-family="monospace" font-size="20" fill="#EF4444">RAW · 30%+ missing</text>
    <rect x="0" y="0" width="520" height="520" rx="16" fill="#0D0D14" stroke="#1E1E2E"/>
  </g>
  <g transform="translate(120 270)" font-family="monospace" font-size="0">
    <!-- 8x8 cells; some red (missing) -->
    <g>
      <!-- rows -->
      <!-- generate visually: filled cyan, missing red outline -->
    </g>
  </g>
  <!-- cells before -->
  <g transform="translate(120 270)">
    <!-- row generator (manual) -->
    <g fill="#1A2740">
      <rect x="0" y="0" width="48" height="48" rx="6"/><rect x="58" y="0" width="48" height="48" rx="6"/><rect x="116" y="0" width="48" height="48" rx="6" fill="#3a1320" stroke="#EF4444"/><rect x="174" y="0" width="48" height="48" rx="6"/><rect x="232" y="0" width="48" height="48" rx="6"/><rect x="290" y="0" width="48" height="48" rx="6" fill="#3a1320" stroke="#EF4444"/><rect x="348" y="0" width="48" height="48" rx="6"/><rect x="406" y="0" width="48" height="48" rx="6"/>
      <rect x="0" y="58" width="48" height="48" rx="6"/><rect x="58" y="58" width="48" height="48" rx="6" fill="#3a1320" stroke="#EF4444"/><rect x="116" y="58" width="48" height="48" rx="6"/><rect x="174" y="58" width="48" height="48" rx="6"/><rect x="232" y="58" width="48" height="48" rx="6" fill="#3a1320" stroke="#EF4444"/><rect x="290" y="58" width="48" height="48" rx="6"/><rect x="348" y="58" width="48" height="48" rx="6"/><rect x="406" y="58" width="48" height="48" rx="6" fill="#3a1320" stroke="#EF4444"/>
      <rect x="0" y="116" width="48" height="48" rx="6"/><rect x="58" y="116" width="48" height="48" rx="6"/><rect x="116" y="116" width="48" height="48" rx="6"/><rect x="174" y="116" width="48" height="48" rx="6" fill="#3a1320" stroke="#EF4444"/><rect x="232" y="116" width="48" height="48" rx="6"/><rect x="290" y="116" width="48" height="48" rx="6"/><rect x="348" y="116" width="48" height="48" rx="6" fill="#3a1320" stroke="#EF4444"/><rect x="406" y="116" width="48" height="48" rx="6"/>
      <rect x="0" y="174" width="48" height="48" rx="6" fill="#3a1320" stroke="#EF4444"/><rect x="58" y="174" width="48" height="48" rx="6"/><rect x="116" y="174" width="48" height="48" rx="6"/><rect x="174" y="174" width="48" height="48" rx="6"/><rect x="232" y="174" width="48" height="48" rx="6"/><rect x="290" y="174" width="48" height="48" rx="6" fill="#3a1320" stroke="#EF4444"/><rect x="348" y="174" width="48" height="48" rx="6"/><rect x="406" y="174" width="48" height="48" rx="6"/>
      <rect x="0" y="232" width="48" height="48" rx="6"/><rect x="58" y="232" width="48" height="48" rx="6"/><rect x="116" y="232" width="48" height="48" rx="6" fill="#3a1320" stroke="#EF4444"/><rect x="174" y="232" width="48" height="48" rx="6"/><rect x="232" y="232" width="48" height="48" rx="6"/><rect x="290" y="232" width="48" height="48" rx="6"/><rect x="348" y="232" width="48" height="48" rx="6"/><rect x="406" y="232" width="48" height="48" rx="6" fill="#3a1320" stroke="#EF4444"/>
      <rect x="0" y="290" width="48" height="48" rx="6"/><rect x="58" y="290" width="48" height="48" rx="6" fill="#3a1320" stroke="#EF4444"/><rect x="116" y="290" width="48" height="48" rx="6"/><rect x="174" y="290" width="48" height="48" rx="6"/><rect x="232" y="290" width="48" height="48" rx="6" fill="#3a1320" stroke="#EF4444"/><rect x="290" y="290" width="48" height="48" rx="6"/><rect x="348" y="290" width="48" height="48" rx="6"/><rect x="406" y="290" width="48" height="48" rx="6"/>
    </g>
  </g>

  <!-- arrow -->
  <g transform="translate(700 510)">
    <path d="M0 0 H150 M150 0 l-26 -20 M150 0 l-26 20" fill="none" stroke="#818CF8" stroke-width="6" stroke-linecap="round" stroke-linejoin="round"/>
    <text x="0" y="-30" font-family="monospace" font-size="20" fill="#818CF8">impute</text>
  </g>

  <!-- AFTER grid (clean) -->
  <g transform="translate(1000 230)">
    <text x="0" y="-10" font-family="monospace" font-size="20" fill="#10B981">CLEAN · &lt;5% missing</text>
    <rect x="0" y="0" width="520" height="520" rx="16" fill="#0D0D14" stroke="#1E1E2E"/>
  </g>
  <g transform="translate(1040 270)" fill="#10B981" fill-opacity="0.25">
    <g>
      <rect x="0" y="0" width="48" height="48" rx="6"/><rect x="58" y="0" width="48" height="48" rx="6"/><rect x="116" y="0" width="48" height="48" rx="6"/><rect x="174" y="0" width="48" height="48" rx="6"/><rect x="232" y="0" width="48" height="48" rx="6"/><rect x="290" y="0" width="48" height="48" rx="6"/><rect x="348" y="0" width="48" height="48" rx="6"/><rect x="406" y="0" width="48" height="48" rx="6"/>
      <rect x="0" y="58" width="48" height="48" rx="6"/><rect x="58" y="58" width="48" height="48" rx="6"/><rect x="116" y="58" width="48" height="48" rx="6"/><rect x="174" y="58" width="48" height="48" rx="6"/><rect x="232" y="58" width="48" height="48" rx="6"/><rect x="290" y="58" width="48" height="48" rx="6"/><rect x="348" y="58" width="48" height="48" rx="6"/><rect x="406" y="58" width="48" height="48" rx="6"/>
      <rect x="0" y="116" width="48" height="48" rx="6"/><rect x="58" y="116" width="48" height="48" rx="6"/><rect x="116" y="116" width="48" height="48" rx="6"/><rect x="174" y="116" width="48" height="48" rx="6"/><rect x="232" y="116" width="48" height="48" rx="6"/><rect x="290" y="116" width="48" height="48" rx="6"/><rect x="348" y="116" width="48" height="48" rx="6"/><rect x="406" y="116" width="48" height="48" rx="6"/>
      <rect x="0" y="174" width="48" height="48" rx="6"/><rect x="58" y="174" width="48" height="48" rx="6"/><rect x="116" y="174" width="48" height="48" rx="6"/><rect x="174" y="174" width="48" height="48" rx="6"/><rect x="232" y="174" width="48" height="48" rx="6"/><rect x="290" y="174" width="48" height="48" rx="6"/><rect x="348" y="174" width="48" height="48" rx="6"/><rect x="406" y="174" width="48" height="48" rx="6"/>
      <rect x="0" y="232" width="48" height="48" rx="6"/><rect x="58" y="232" width="48" height="48" rx="6"/><rect x="116" y="232" width="48" height="48" rx="6"/><rect x="174" y="232" width="48" height="48" rx="6"/><rect x="232" y="232" width="48" height="48" rx="6"/><rect x="290" y="232" width="48" height="48" rx="6"/><rect x="348" y="232" width="48" height="48" rx="6"/><rect x="406" y="232" width="48" height="48" rx="6"/>
      <rect x="0" y="290" width="48" height="48" rx="6"/><rect x="58" y="290" width="48" height="48" rx="6"/><rect x="116" y="290" width="48" height="48" rx="6"/><rect x="174" y="290" width="48" height="48" rx="6"/><rect x="232" y="290" width="48" height="48" rx="6"/><rect x="290" y="290" width="48" height="48" rx="6"/><rect x="348" y="290" width="48" height="48" rx="6"/><rect x="406" y="290" width="48" height="48" rx="6"/>
    </g>
  </g>
</svg>
